<svg width="14" height="26" viewBox="0 0 14 26" fill="none" xmlns="http://www.w3.org/2000/svg">
<path d="M10.3493 13.0092L0.502396 23.0865C0.167467 23.4293 0.0053622 23.8291 0.0160799 24.2862C0.0267976 24.7432 0.200066 25.1431 0.535888 25.4859C0.871709 25.8286 1.26246 26 1.70814 26C2.15381 26 2.54456 25.8286 2.88039 25.4859L13.1962 14.9629C13.4641 14.6887 13.6651 14.3802 13.799 14.0375C13.933 13.6947 14 13.3519 14 13.0092C14 12.6664 13.933 12.3236 13.799 11.9809C13.6651 11.6381 13.4641 11.3296 13.1962 11.0554L2.88039 0.498206C2.54546 0.15544 2.1489 -0.0104583 1.69072 0.000510164C1.23254 0.0114787 0.836431 0.188803 0.502396 0.532483C0.168361 0.876163 0.000896956 1.27606 3.8147e-06 1.73216C-0.000889327 2.18827 0.166574 2.58817 0.502396 2.93185L10.3493 13.0092Z" fill="white"/>
</svg>
