<svg width="14" height="26" viewBox="0 0 14 26" fill="none" xmlns="http://www.w3.org/2000/svg">
<path d="M3.65072 13.0092L13.4976 23.0865C13.8325 23.4293 13.9946 23.8291 13.9839 24.2862C13.9732 24.7432 13.7999 25.1431 13.4641 25.4859C13.1283 25.8286 12.7375 26 12.2919 26C11.8462 26 11.4554 25.8286 11.1196 25.4859L0.803828 14.9629C0.535885 14.6887 0.334928 14.3802 0.200957 14.0375C0.0669857 13.6947 0 13.3519 0 13.0092C0 12.6664 0.0669857 12.3236 0.200957 11.9809C0.334928 11.6381 0.535885 11.3296 0.803828 11.0554L11.1196 0.498206C11.4545 0.15544 11.8511 -0.0104583 12.3093 0.000510164C12.7675 0.0114787 13.1636 0.188803 13.4976 0.532483C13.8316 0.876163 13.9991 1.27606 14 1.73216C14.0009 2.18827 13.8334 2.58817 13.4976 2.93185L3.65072 13.0092Z" fill="white"/>
</svg>
