<svg width="217" height="57" viewBox="0 0 217 57" fill="none" xmlns="http://www.w3.org/2000/svg">
<path d="M215.5 1C206 9 201.747 9.3034 204.698 26.716C205.939 34.0534 197.079 45.461 186 45.5C176.488 45.5341 166.049 33.6911 168.5 26.716C171.455 18.3143 160.556 16.311 149.73 16.7692C138.078 17.2615 138.447 26.3309 124.5 26.716C112.308 27.0523 114.165 17.0893 103.714 17.6921C86.1475 18.7059 96.6077 31.5776 98.5 41.5C99.5172 46.8276 94.3399 56.844 83.3664 56.9951C72.5029 57.143 65.0287 51.6539 66 42.5C66.9668 33.4241 75.4352 29.6991 69.7446 19.5199C66.519 13.7488 36.0682 13.2727 36.9433 25.2423C37.7543 36.3346 9 36.5 9 25C11 10.5 4.5 7 0 0.5L215.5 1Z" fill="#B0D9FF"/>
</svg>
